<svg xmlns="http://www.w3.org/2000/svg" version="1.1" xmlns:xlink="http://www.w3.org/1999/xlink" xmlns:svgjs="http://svgjs.dev/svgjs" viewBox="0 0 7.313947591566059 5.174266552181338"><g transform="matrix(1,0,0,1,3.6670649009346166,4.850654906138698)"><g transform="matrix(1,0,0,1,0,0)"><path d=" M -2.481534907260016 -0.687029409642143 Q -2.514993277939264 -0.6093825331338762 -2.583569912196999 -0.5603137524899591 Q -2.6521465464547336 -0.5112449718460417 -2.7393628456899446 -0.4995267318880028 Q -2.8414455595675205 -0.48581106466438906 -2.921215405835771 -0.5275605751566061 Q -3.0009852521040212 -0.5693100856488231 -3.0485084296981455 -0.6451572846172576 Q -3.0960316072922702 -0.7210044835856921 -3.1073503617971943 -0.8052474998924297 Q -3.1200007344791683 -0.8994014592940777 -3.0854846885815763 -0.9766859504653039 Q -3.0509686426839844 -1.05397044163653 -2.983745488072781 -1.1018483852443988 Q -2.916522333461578 -1.1497263288522677 -2.8352526000833134 -1.1606455979040766 Q -2.7450630179196294 -1.1727633233152304 -2.6633480831484717 -1.1353110946052398 Q -2.581633148377314 -1.0978588658952497 -2.527305472434457 -1.023934893960241 Q -2.4729777964916004 -0.9500109220252325 -2.4604605856273314 -0.8568480569330756 Q -2.4480765365807677 -0.7646762861504097 -2.481534907260016 -0.687029409642143 M -2.5352256110866818 -0.9815023427320915 Q -2.5733618770330122 -1.0212782804290303 -2.6386343168188264 -1.0377330245597443 Q -2.70390675660464 -1.0541877686904582 -2.79013196153036 -1.0426026905501242 Q -2.8813126380035348 -1.0303518033212655 -2.949438444545895 -0.9929469308719051 Q -3.017564251088255 -0.9555420584225447 -3.051141541439023 -0.8975544254936155 Q -3.084718831789791 -0.8395667925646864 -3.0752643427327366 -0.7691990965908232 Q -3.063146617321583 -0.6790095144271393 -2.988731728053903 -0.6395674777748706 Q -2.914316838786223 -0.6001254411226016 -2.792412238718826 -0.6165043447003151 Q -2.696276090698196 -0.6294210410176988 -2.6243856496444296 -0.6688452022021159 Q -2.5524952085906625 -0.7082693633865328 -2.5167359868943553 -0.7650366784866354 Q -2.4809767651980477 -0.821803993586738 -2.4896322833488718 -0.8862251237036549 Q -2.4970893451403513 -0.9417264050351527 -2.5352256110866818 -0.9815023427320915 M -2.5106419206747788 -1.740658228867264 Q -2.5102942308030483 -1.743638012710615 -2.505154079461598 -1.7445484215127398 Q -2.5000139281201474 -1.7454588303148642 -2.4994842533346713 -1.741369888566486 L -2.4595900340655907 -1.6259686265763738 Q -2.4580670979989976 -1.6217637882040852 -2.4586465811185483 -1.6167974817985002 Q -2.460848616972842 -1.5979255174572768 -2.478884885013053 -1.581404529739175 Q -2.496921153053264 -1.5648835420210734 -2.5328442641314615 -1.5590073110467602 L -2.5050339167269775 -1.4953552523428821 Q -2.4906321123841773 -1.4634712746789882 -2.4864028540782477 -1.4393183582053668 Q -2.482173595772318 -1.4151654417317456 -2.485071011370073 -1.39033390970382 Q -2.4895909797025704 -1.3515967197402565 -2.5133468822037828 -1.3291990168144452 Q -2.537102784704995 -1.3068013138886339 -2.5698804069818566 -1.3106259024776703 Q -2.600671506696484 -1.3142186978188863 -2.621637266012575 -1.3373041247436748 Q -2.642603025328666 -1.3603895516684632 -2.65122724689851 -1.3986468751806254 L -2.6905908229153215 -1.5703661486567517 L -2.808788915368247 -1.584157846902065 Q -2.8693778535163847 -1.591227540960587 -2.8986378771865384 -1.5820568804161097 Q -2.9278979008566925 -1.5728862198716325 -2.931143006326178 -1.545074904000356 Q -2.9348516982913044 -1.5132905430046113 -2.9081332603692944 -1.4920508378511093 Q -2.8814148224472844 -1.4708111326976074 -2.8378770310361205 -1.4556631718104784 Q -2.7835292621565797 -1.4382470867792203 -2.788976403480359 -1.3915638065667204 Q -2.7918738190781136 -1.366732274538795 -2.805970086138774 -1.3537786937614757 Q -2.8200663531994348 -1.3408251129841564 -2.8429113626651263 -1.343490735334091 Q -2.872709201098637 -1.3469676340513967 -2.8996508080571903 -1.387865675746456 Q -2.9265924150157443 -1.4287637174415153 -2.9406958535874925 -1.4847757074119934 Q -2.9547992921592408 -1.5407876973824712 -2.9495839440832823 -1.585484455032737 Q -2.9434414230160417 -1.638127302931939 -2.9125339424441075 -1.6657312454890363 Q -2.8816264618721736 -1.6933351880461334 -2.8269970914107376 -1.6869608737310726 L -2.615432438532813 -1.662274892838201 Q -2.5707356808825472 -1.6570595447622423 -2.547956759706691 -1.662455909285154 Q -2.525177838530835 -1.6678522738080659 -2.5177695630452557 -1.6795726600785674 Q -2.510361287559676 -1.691293046349069 -2.5080433550814725 -1.7111582719714094 Q -2.50688438884237 -1.7210908847825794 -2.509880452641482 -1.7385558096811198 L -2.5106419206747788 -1.740658228867264 M -2.5531730762494425 -1.5573521984004959 Q -2.5713994691812796 -1.5564585537875284 -2.5932512173658537 -1.5590082795135527 L -2.6697323360118643 -1.5679323195546377 L -2.6479150846723964 -1.478803157413448 Q -2.6355994195599797 -1.4290404766894476 -2.5899094006285965 -1.4237092319895785 Q -2.563091346038437 -1.4205800231440033 -2.546189140070291 -1.4316960221279165 Q -2.5292869341021444 -1.4428120211118296 -2.52673720837612 -1.4646637692964042 Q -2.5248828623935573 -1.4805559497942764 -2.53554341485971 -1.5099898184002956 L -2.5531730762494425 -1.5573521984004959 M -2.279968407216488 -2.277828152098536 Q -2.274279493200297 -2.275921254797581 -2.2752329418507746 -2.2730767977894857 L -2.3175024986886132 -2.1469725370972603 Q -2.3194093959895685 -2.14128362308107 -2.3240203792907663 -2.1259542775961484 Q -2.328631362591964 -2.1106249321112274 -2.386529562706029 -2.093645579251011 Q -2.4444277628200934 -2.076666226390795 -2.5001144902024914 -2.0584182568204983 L -2.611487944967288 -2.0219223176799046 L -2.594468869748728 -1.987741166752749 L -2.4702609137285663 -1.946107242348562 Q -2.4418163436476132 -1.9365727558437862 -2.426953129859039 -1.936864090488383 Q -2.412089916070465 -1.93715542513298 -2.4025845592951414 -1.9482074924768666 Q -2.3930792025198175 -1.9592595598207532 -2.3841803484486936 -1.9858078252296427 Q -2.383544716015042 -1.9877041299017064 -2.377855801998851 -1.9857972326007511 Q -2.3721668879826607 -1.983890335299796 -2.3728025204163123 -1.9819940306277326 Q -2.382654823137914 -1.9526013082107476 -2.389005851159985 -1.9368005347150334 L -2.411247690023349 -1.8735921444177308 L -2.4309575917809982 -1.81164442635884 Q -2.4357301313478317 -1.7942598680934423 -2.4459002502862592 -1.7639189933404256 Q -2.446535882719911 -1.762022688668362 -2.4522247967361013 -1.7639295859693171 Q -2.457913710752292 -1.7658364832702724 -2.45727807831864 -1.767732787942336 Q -2.4480614080306906 -1.7952292056872572 -2.4485116507837 -1.8096183433078155 Q -2.44896189353671 -1.8240074809283735 -2.4611210213250416 -1.8333565777525074 Q -2.4732801491133727 -1.842705674576641 -2.5017247191943257 -1.8522401610814168 L -2.7918593340200473 -1.9494919234301284 Q -2.8203039041010003 -1.9590264099349042 -2.8351671178895743 -1.9587350752903072 Q -2.8500303316781483 -1.9584437406457105 -2.859535688453472 -1.9473916733018237 Q -2.869041045228796 -1.936339605957937 -2.877622083083094 -1.9107394928850792 Q -2.8785755317335715 -1.907895035876984 -2.8842644457497624 -1.909801933177939 Q -2.889953359765953 -1.9117088304788943 -2.888999911115475 -1.9145532874869895 L -2.8727965803718023 -1.9597467833996887 Q -2.858187627026705 -1.9970372444073077 -2.8502422216060586 -2.020741052808102 Q -2.8416611837517602 -2.0463411658809596 -2.8308448397507897 -2.084902891755882 L -2.8165378136791803 -2.130732020102233 Q -2.8159021812455287 -2.1326283247742963 -2.810213267229338 -2.1307214274733415 Q -2.8045243532131474 -2.128814530172386 -2.805159985646799 -2.1269182255003227 Q -2.8178726343198335 -2.088992132059052 -2.8085712043257116 -2.072690800823093 Q -2.79926977433159 -2.056389469587134 -2.758499223882224 -2.0427233722636218 L -2.6323949631899985 -2.000453815425783 L -2.7077174812778826 -2.1533181941047297 Q -2.734191598284531 -2.20648887332475 -2.7559991020132615 -2.2137986463117447 Q -2.774013996397865 -2.219837154431436 -2.7838662991194667 -2.190444432014451 Q -2.7845019315531183 -2.1885481273423877 -2.790190845569309 -2.1904550246433425 Q -2.7958797595854996 -2.192361921944298 -2.795244127151848 -2.1942582266163613 L -2.7809476937091304 -2.23376280851287 Q -2.766974372797684 -2.2691569648484253 -2.756486437642431 -2.300445991937474 Q -2.7428203403189193 -2.3412165423868396 -2.7339108936189036 -2.3740893542455717 Q -2.731680883786677 -2.3838886938227155 -2.727549272967941 -2.3962146741911283 Q -2.7265958243174633 -2.3990591311992233 -2.720906910301273 -2.3971522338982685 Q -2.715217996285082 -2.395245336597313 -2.7161714449355596 -2.3924008795892178 Q -2.728566277391768 -2.355422938483979 -2.720138832656398 -2.289317128034123 Q -2.711711387921028 -2.223211317584267 -2.6852372709143797 -2.170040638364247 L -2.6556114733117018 -2.1105401163799384 L -2.5233521855819774 -2.155855464874969 Q -2.42368496769528 -2.1888924998315984 -2.3773261518792324 -2.2076304345132485 Q -2.330967336063185 -2.2263683691948986 -2.312285031358255 -2.2411998050967976 Q -2.293602726653325 -2.256031240998697 -2.286610769883156 -2.276890592391396 Q -2.2856573212326783 -2.2797350493994912 -2.279968407216488 -2.277828152098536 M -1.7221861591670657 -3.0547056630392646 Q -1.7175247916386154 -3.0509278789315224 -1.7194136836924865 -3.0485971951672974 Q -1.7414507576543152 -3.02140588458467 -1.7554498966194876 -3.0057207289197176 L -1.8047083539235858 -2.946529476322562 L -1.8605982209516418 -2.8759793327111827 Q -1.8711546786867932 -2.861365599441208 -1.8906732299101272 -2.8372818672108813 Q -1.8925621219639983 -2.834951183446656 -1.8972234894924487 -2.838728967554398 Q -1.901884857020899 -2.84250675166214 -1.899995964967028 -2.8448374354263652 Q -1.8766996296359517 -2.8735825351851423 -1.8698803809377245 -2.889937896605537 Q -1.8630611322394972 -2.906293258025931 -1.870159872364806 -2.919769455139113 Q -1.8772586124901147 -2.933245652252295 -1.9013423447204416 -2.952764203475629 L -2.080028099977705 -3.0975792609390753 L -2.283398811111154 -2.8466423089908313 L -2.1047130558538902 -2.701827251527385 Q -2.0814062182116384 -2.6829383309886743 -2.066363462576808 -2.6784700535900816 Q -2.0513207069419774 -2.6740017761914885 -2.0367325123629993 -2.684060830765646 Q -2.0221443177840217 -2.694119885339804 -1.9988479824529455 -2.722864985098581 Q -1.9975887210836982 -2.724418774274731 -1.9929273535552479 -2.720640990166989 Q -1.9882659860267975 -2.716863206059247 -1.9895252473960447 -2.715309416883097 Q -2.0115623213578737 -2.6881181063004695 -2.025561460323046 -2.672432950635517 L -2.081116224473381 -2.6054727521576106 L -2.127561631232082 -2.546576027367357 Q -2.1393773503364804 -2.5304085049212324 -2.1614144242983095 -2.5032171943386055 Q -2.162673685667557 -2.5016634051624553 -2.167335053196007 -2.5054411892701975 Q -2.1719964207244575 -2.5092189733779393 -2.17073715935521 -2.5107727625540894 Q -2.148700085393381 -2.537964073136717 -2.1425104673797777 -2.553542539969036 Q -2.1363208493661743 -2.5691210068013555 -2.1438080367855203 -2.582912019256849 Q -2.151295224204867 -2.5967030317123427 -2.1746020618471187 -2.6155919522510533 L -2.5343042561258713 -2.907110959231817 Q -2.557611093768123 -2.925999879770527 -2.5722654021089157 -2.9301533418268084 Q -2.586919710449709 -2.9343068038830893 -2.600951906295789 -2.925727906533356 Q -2.6149841021418685 -2.917149009183623 -2.6363915454190736 -2.890734593189071 Q -2.6382804374729445 -2.888403909424846 -2.642941805001395 -2.8921816935325877 Q -2.6476031725298452 -2.89595947764033 -2.6457142804759743 -2.8982901614045553 L -2.6109373289182205 -2.9396128384759845 Q -2.5804205282493813 -2.97409072815819 -2.562790869079918 -2.995843776624292 Q -2.5388649030642183 -3.025365770971144 -2.5089371580091844 -3.0654697617441444 L -2.475084364942957 -3.1088285947728966 Q -2.4738251035737098 -3.1103823839490463 -2.4691637360452594 -3.1066045998413045 Q -2.464502368516809 -3.1028268157335623 -2.4657616298860567 -3.101273026557412 Q -2.488428334532509 -3.07330482138671 -2.4944706886426613 -3.056319829281692 Q -2.5005130427528135 -3.039334837176674 -2.493340670675779 -3.0251553774271427 Q -2.4861682985987446 -3.0109759176776114 -2.4628614609564927 -2.992086997138901 L -2.3051518595772555 -2.864271968160294 L -2.101781148443807 -3.1152089201085387 L -2.259490749823044 -3.2430239490871453 Q -2.282797587465296 -3.2619128696258555 -2.2978403431001264 -3.2663811470244486 Q -2.312883098734957 -3.2708494244230417 -2.32824818790201 -3.2614200005335077 Q -2.3436132770690628 -3.2519905766439736 -2.3669096124001388 -3.2232454768851966 Q -2.36879850445401 -3.220914793120971 -2.37345987198246 -3.2246925772287134 Q -2.3781212395109104 -3.2284703613364556 -2.3762323474570395 -3.230801045100681 L -2.3446035493224042 -3.268239249231735 Q -2.31156822591507 -3.3058247172662405 -2.2863829985301227 -3.336900500789243 Q -2.2693829700452834 -3.35787665466727 -2.2394552249902495 -3.3979806454402697 L -2.2049728012393985 -3.4421163730570967 Q -2.2030839091855277 -3.444447056821322 -2.1984225416570773 -3.4406692727135804 Q -2.193761174128627 -3.4368914886058377 -2.1956500661824983 -3.4345608048416127 Q -2.2170575094597034 -3.4081463888470607 -2.223173495521581 -3.391864659378392 Q -2.229289481583459 -3.375582929909723 -2.221875926115838 -3.362495180090579 Q -2.2144623706482176 -3.3494074302714347 -2.1911555330059658 -3.330518509732724 L -1.8314533387272132 -3.0389995027519605 Q -1.8081465010849613 -3.0201105822132503 -1.7934185607924429 -3.01525385752062 Q -1.7786906204999242 -3.0103971328279893 -1.76473205660557 -3.0196792928140717 Q -1.750773492711216 -3.0289614528001545 -1.7287364187493872 -3.0561527633827814 Q -1.726847526695516 -3.058483447147007 -1.7221861591670657 -3.0547056630392646 M -1.5798070082865021 -3.1704574157037917 Q -1.6448317588165957 -3.1649772862802212 -1.7029792556934529 -3.1927643085560233 Q -1.7611267525703098 -3.220551330831825 -1.7996459287040627 -3.2741449225194224 Q -1.8440013436459601 -3.3358587553718073 -1.844609328370658 -3.4043852491867876 Q -1.845217313095356 -3.472911743001768 -1.8122029224755316 -3.53235331104974 Q -1.779188531855707 -3.5917948790977112 -1.7264069642845883 -3.6297304313506498 Q -1.6687532520145971 -3.6711677268884753 -1.6043629137784072 -3.6749603963743454 Q -1.5399725755422171 -3.678753065860215 -1.4832207266626534 -3.651194443820078 Q -1.4264688777830896 -3.6236358217799403 -1.390867821053409 -3.5741023506747363 Q -1.3517650210388414 -3.51969673487066 -1.3466274919687675 -3.4525785123446266 Q -1.3414899628986934 -3.3854602898185933 -1.3700763859993204 -3.32242802495121 Q -1.3986628090999473 -3.259395760083827 -1.4571285454864173 -3.217374840665187 Q -1.5147822577564085 -3.175937545127362 -1.5798070082865021 -3.1704574157037917 M -1.4104864709696052 -3.3469540322229685 Q -1.4145709523958825 -3.411750382517398 -1.4711824688348831 -3.490516721815837 Q -1.509701644968636 -3.544110313503434 -1.5574578168621906 -3.576287138176998 Q -1.6052139887557453 -3.6084639628505615 -1.6532370212528744 -3.6127404508699152 Q -1.7012600537500038 -3.617016938889269 -1.7402372113409836 -3.589002992610176 Q -1.7873346100967513 -3.5551528075229384 -1.7836813873120207 -3.498666933507525 Q -1.7800281645272902 -3.4421810594921123 -1.7251675197307328 -3.36585079254311 Q -1.6837302241929077 -3.3081970802731187 -1.6329417327774487 -3.272657959015808 Q -1.5821532413619896 -3.2371188377584965 -1.534472809218357 -3.230748877743203 Q -1.4867923770747242 -3.22437891772791 -1.4518753400661382 -3.2494747446029306 Q -1.406401989543328 -3.282157681928539 -1.4104864709696052 -3.3469540322229685 M -0.9027775256308819 -4.020050230817949 Q -0.9108633870253148 -4.010783686396752 -0.9092449101005435 -3.99631369909738 Q -0.9076264331757723 -3.9818437117980086 -0.8962294577779961 -3.9540928748415762 L -0.7799803087206795 -3.6710343378859673 Q -0.7685833333229033 -3.643283500929535 -0.7593746836197872 -3.6313901931202963 Q -0.7501660339166711 -3.6194968853110576 -0.7385537450822905 -3.6188606872075404 Q -0.72694145624791 -3.6182244891040236 -0.7065908424798595 -3.6265822710623925 Q -0.7038157587842163 -3.62772196860217 -0.7015363637046611 -3.6221718012108837 Q -0.6992569686251059 -3.6166216338195976 -0.7020320523207491 -3.61548193627982 L -0.762538764906278 -3.591713517483186 L -0.8241357349290509 -3.5653352445296047 Q -0.8352360697116238 -3.5607764543704943 -0.8396133648963184 -3.5622218909363967 Q -0.8439906600810132 -3.5636673275022996 -0.8489293494200496 -3.5756926901834203 L -0.8694439051360466 -3.6256441967049984 Q -0.9065295672334281 -3.518524386834 -1.0018074407838455 -3.479394771301635 Q -1.0656343657836396 -3.45318172788675 -1.1231669466726406 -3.4695524986765003 Q -1.1806995275616419 -3.4859232694662508 -1.2099517644159339 -3.557150417654427 L -1.30416676103755 -3.786557336494267 Q -1.315563736435326 -3.814308173450699 -1.3236574086499315 -3.8261188664905896 Q -1.331751080864537 -3.8379295595304805 -1.3412407495425112 -3.839978019533086 Q -1.3507304182204856 -3.8420264795356918 -1.366455892495797 -3.835568193476952 Q -1.3683059482928925 -3.8348083951171 -1.3705853433724478 -3.8403585625083867 Q -1.372864738452003 -3.8459087298996733 -1.3710146826549074 -3.8466685282595248 L -1.3345586954316198 -3.8605595683780862 Q -1.3041980043182404 -3.8708662863386185 -1.2856974463472854 -3.878464269937136 Q -1.2634967767821397 -3.8875818502553567 -1.2309555707942728 -3.9031082765297835 L -1.194334354032289 -3.9192292716253663 Q -1.1924842982351935 -3.9199890699852182 -1.1902049031556383 -3.9144389025939317 Q -1.187925508076083 -3.908888735202645 -1.1897755638731784 -3.9081289368427936 Q -1.2110512055397766 -3.8993912557044985 -1.2189471173442465 -3.8896621973340273 Q -1.2268430291487165 -3.8799331389635565 -1.2250346026339822 -3.8650006377149104 Q -1.223226176119248 -3.850068136466265 -1.211829200721472 -3.8223172995098325 L -1.1274915827779284 -3.616961106032234 Q -1.0986192451035621 -3.5466589857426056 -1.0597192770573978 -3.5269601917184175 Q -1.0208193090112334 -3.5072613976942297 -0.9773429977794896 -3.5251166591507457 Q -0.9051908216927658 -3.5547487951849637 -0.8819805780736003 -3.6561701173570738 L -0.9879724492729185 -3.914252901051894 Q -0.9993694246706947 -3.9420037380083257 -1.0081155604245369 -3.9540869954075273 Q -1.0168616961783792 -3.9661702528067293 -1.0288538841926858 -3.967731478808794 Q -1.040846072206992 -3.969292704810859 -1.0611966859750424 -3.9609349228524895 Q -1.0639717696706856 -3.959795225312712 -1.0662511647502408 -3.9653453927039983 Q -1.068530559829796 -3.970895560095285 -1.065755476134153 -3.9720352576350626 L -1.022824293621031 -3.988585592013105 Q -0.9869134351163651 -4.001171705053192 -0.9684128771454102 -4.00876968865171 Q -0.9517623749715509 -4.015607873890375 -0.919221168983684 -4.031134300164802 L -0.8779748127289614 -4.0491547911600145 Q -0.8751997290333182 -4.050294488699792 -0.872920333953763 -4.044744321308506 Q -0.8706409388742078 -4.039194153917219 -0.873416022569851 -4.038054456377441 Q -0.8946916642364491 -4.029316775239146 -0.9027775256308819 -4.020050230817949 M -0.575086066574614 -3.9886422076245935 Q -0.5560756600140766 -3.971347571392424 -0.531290036839186 -3.9612395110526593 Q -0.5065044136642952 -3.9511314507128947 -0.464488089831877 -3.9386563342160694 Q -0.41583771004449066 -3.9233546824574166 -0.38773505889211596 -3.9118333544867383 Q -0.35963240773974126 -3.9003120265160605 -0.33666036660804327 -3.8781639944083635 Q -0.3136883254763453 -3.8560159623006665 -0.30705808622710085 -3.8206317860703543 Q -0.29969115372794036 -3.781316034703341 -0.31680352500049286 -3.745043913874386 Q -0.3339158962730453 -3.7087717930454307 -0.3707152484871328 -3.68254570533446 Q -0.4075146007012203 -3.656319617623489 -0.4576421836941623 -3.6469267786870594 Q -0.5028552977662277 -3.638454806313025 -0.5477291704713634 -3.6417465457382043 Q -0.592603043176499 -3.6450382851633836 -0.6118906638821858 -3.655667851829695 Q -0.6206746807179836 -3.6591089342507397 -0.6236214537176478 -3.674835234797545 L -0.6493475069486527 -3.7849813658469627 Q -0.6500842001985688 -3.788912940983664 -0.6453539045901712 -3.7908167013302343 Q -0.6406236089817735 -3.792720461676805 -0.6379211281635068 -3.7891572331650614 Q -0.5884157257412294 -3.731284829283692 -0.5423475890342728 -3.6971860495350093 Q -0.4962794523273163 -3.6630872697863266 -0.4471347631185496 -3.6722959354102773 Q -0.41764794959328955 -3.6778211347846477 -0.4013051935344051 -3.699196689149384 Q -0.3849624374755206 -3.72057224351412 -0.391592676724765 -3.7559564197444324 Q -0.3974862227240934 -3.787409020838043 -0.4181241296624827 -3.8079596120023473 Q -0.438762036600872 -3.8285102031666516 -0.4653903470769837 -3.8403077911060484 Q -0.4920186575530954 -3.852105379045445 -0.535386221794647 -3.8663621097981418 Q -0.5992705010603201 -3.8869484854554908 -0.6349891477754073 -3.9092515856176386 Q -0.6707077944904944 -3.931554685779786 -0.6791797668645291 -3.9767677998518516 Q -0.6898618189883117 -4.033775639334021 -0.6460882152758955 -4.0770783138245 Q -0.6023146115634794 -4.120380988314978 -0.5315462591028555 -4.133641466813467 Q -0.5000936580092448 -4.139535012812796 -0.4644031623757549 -4.139100822260334 Q -0.42871266674226516 -4.1386666317078715 -0.40641433746227207 -4.133688227212353 Q -0.39701577346725697 -4.132397105672138 -0.3932383122085754 -4.128526603580786 Q -0.38946085094989386 -4.124656101489434 -0.38798746445006177 -4.1167929512160315 L -0.3704909997645557 -4.023418041719374 Q -0.36993847982711864 -4.020469360366849 -0.37457668877927675 -4.0180741531281905 Q -0.3792148977314349 -4.015678945889532 -0.38173320523722265 -4.018259280617101 Q -0.40777511963571444 -4.054075739047013 -0.44837626748435727 -4.086146704005564 Q -0.4889774153330001 -4.118217668964116 -0.5440194672468188 -4.107903963465291 Q -0.5774378559087802 -4.101642070841005 -0.5909240172713781 -4.081310483305793 Q -0.6044101786339762 -4.060978895770582 -0.5992533258845638 -4.033457869813672 Q -0.5940964731351515 -4.005936843856763 -0.575086066574614 -3.9886422076245935 M -0.11818309749785383 -3.9693884504956354 Q -0.11707198840007962 -3.858394011731466 -0.06741378389649966 -3.7928878080139508 Q -0.01775557939291969 -3.7273816042964354 0.0712399615981707 -3.728272493573029 Q 0.09623870906757814 -3.728522743369825 0.12216733649265898 -3.7357826524499274 Q 0.14809596391773983 -3.743042561530029 0.16795482200705997 -3.7572420599503342 L 0.1689547719058363 -3.757252069942206 Q 0.17195462160216518 -3.7572820999178216 0.17448953132065737 -3.753807300251784 Q 0.17702444103914955 -3.7503325005857464 0.17505457121721246 -3.747312630905674 Q 0.10561863784769471 -3.6906147371431723 0.02162284635048578 -3.689773897825938 Q -0.056373245754065326 -3.6889931184599343 -0.11120584996508015 -3.721945895511925 Q -0.16603845417609495 -3.754898672563916 -0.1945775909029106 -3.808615687325424 Q -0.22311672762972626 -3.862332702086933 -0.22374735711765217 -3.9253295457098396 Q -0.22443804655680913 -3.994326088725404 -0.19101532453104583 -4.052163547628684 Q -0.1575926025052825 -4.110001006531963 -0.09993084310396397 -4.144079907669536 Q -0.0422690837026454 -4.178158808807108 0.025727509414142757 -4.178839488254393 Q 0.0997238019235887 -4.1795802276529095 0.13911223765886604 -4.140972571283636 Q 0.17850067339414333 -4.102364914914362 0.17913130288206924 -4.039368071291455 Q 0.17926143277640316 -4.026368722607364 0.17681160798882162 -4.0213439481338025 Q 0.17436178320124013 -4.016319173660241 0.16736213390980603 -4.016249103717138 L -0.11661362735079034 -4.01240631612676 Q -0.11835326735967511 -3.986387598774832 -0.11818309749785383 -3.9693884504956354 M -0.0772067455643809 -4.121806259764186 Q -0.10438504804083018 -4.089532588226868 -0.11381397749189825 -4.032435344077901 L 0.07214667370487737 -4.037297052262392 Q 0.06896559486644765 -4.155271120334252 -0.008030547339327149 -4.15450035096012 Q -0.05002844308793161 -4.154079931301503 -0.0772067455643809 -4.121806259764186 M 1.231314577368599 -3.421194936253188 Q 1.2292795201457432 -3.4155505990822084 1.2273980744220834 -3.416228951489827 Q 1.1954134971198656 -3.427760942419344 1.1769382160870763 -3.4354851893573604 L 1.1076639005154705 -3.46152495130108 L 1.0367705096744162 -3.486022443724949 Q 1.0185575990958382 -3.491526068735496 0.9875137446554505 -3.5027188834612035 Q 0.9846915760699606 -3.5037364120726315 0.9867266332928166 -3.5093807492436113 Q 0.9887616905156724 -3.5150250864145907 0.9915838591011623 -3.5140075578031627 Q 1.0310942192980195 -3.4997621572431714 1.0485968242635617 -3.504081742804331 Q 1.0660994292291037 -3.5084013283654905 1.076953067751002 -3.5385044599440483 L 1.0817783403539305 -3.5548359247989665 L 1.2007462276135137 -3.9467142755674045 L 0.8431352116366462 -3.562215431288267 Q 0.839897061097749 -3.559130892248566 0.8342527239267694 -3.561165949471422 Q 0.8286083867557898 -3.563201006694278 0.8280836458473673 -3.5676422505492162 L 0.7532245158366769 -4.105941526653171 L 0.6232561233668731 -3.7690539831630403 Q 0.6039998854993399 -3.718594124828033 0.6148212756743292 -3.682270612956511 Q 0.6256426658493184 -3.645947101084988 0.6642123031843457 -3.632040876728806 Q 0.6670344717698354 -3.631023348117378 0.6649994145469795 -3.6253790109463986 Q 0.6629643573241236 -3.619734673775419 0.6601421887386338 -3.620752202386847 Q 0.6347426714692257 -3.6299099598896984 0.620971004745586 -3.6359383258086684 L 0.569570423548749 -3.6555337398800107 L 0.5099657070496539 -3.6759611178581677 Q 0.4945749650565656 -3.680447214257287 0.4691754477871575 -3.6896049717601387 Q 0.46635327920166764 -3.6906225003715667 0.4683883364245236 -3.696266837542546 Q 0.4704233936473795 -3.701911174713526 0.4732455622328693 -3.700893646102098 Q 0.5118151995678966 -3.6869874217459158 0.5449070105699039 -3.70800960157122 Q 0.5779988215719112 -3.7290317813965244 0.5969158832356349 -3.7785509168697016 L 0.7458013373691627 -4.16495759583301 L 0.7451997907111421 -4.166237494898649 Q 0.7389348530154882 -4.207827764862543 0.7244753069509031 -4.231112341895552 Q 0.710015760886318 -4.2543969189285615 0.6836755207550799 -4.263893852635222 Q 0.6808533521695901 -4.26491138124665 0.682888409392446 -4.27055571841763 Q 0.6849234666153019 -4.2762000555886095 0.6877456352007917 -4.275182526977181 L 0.7316204335029892 -4.258300522536313 Q 0.7444513773647989 -4.252611332821153 0.7651472803250574 -4.245149456337348 L 0.8153447682058532 -4.228113840397284 Q 0.8241504501661319 -4.22600197742483 0.837320570231751 -4.2212535105715 Q 0.8495499674355401 -4.216844219921978 0.8530824416340659 -4.206003480738843 Q 0.8566149158325915 -4.195162741555709 0.8629566592778433 -4.156733816381115 L 0.929311175798757 -3.6980377534622404 L 1.2559293444073074 -4.0437494424963205 Q 1.2663221484316176 -4.054884505339084 1.2743023161544633 -4.057853835754387 Q 1.2822824838773093 -4.060823166169691 1.2926304353574385 -4.0570922279277895 Q 1.301096941113908 -4.054039642093505 1.3115760778211427 -4.049198392887868 Q 1.3220552145283777 -4.044357143682231 1.3361660574558267 -4.039269500625091 L 1.392007882507602 -4.020198827462171 Q 1.4055171787770304 -4.016391083470671 1.4299759731846087 -4.007572502171628 Q 1.4327981417700986 -4.006554973560201 1.4307630845472425 -4.000910636389221 Q 1.4287280273243865 -3.9952662992182413 1.4259058587388969 -3.9962838278296693 Q 1.38169188423289 -4.012225109408707 1.3554923562620844 -4.001474075313935 Q 1.3292928282912788 -3.9907230412191614 1.3176072258625657 -3.9524157743383452 L 1.1861985780170532 -3.517187366176132 Q 1.177565561422624 -3.4873466050517856 1.1779910703093583 -3.4723110158652153 Q 1.1784165791960923 -3.457275426678645 1.1903611796735798 -3.44765375741426 Q 1.2023057801510673 -3.438032088149875 1.2314681888677952 -3.4275176258317863 Q 1.233349634591455 -3.426839273424168 1.231314577368599 -3.421194936253188 M 1.7085311776926404 -3.0582532709966106 Q 1.7050216379307297 -3.053386739309714 1.7025883720872814 -3.055141509190669 L 1.5695698393121105 -3.151068929349562 Q 1.5574035100948693 -3.1598427787543386 1.5612719960563906 -3.2310276424288977 Q 1.5651404820179118 -3.3022125061034564 1.5835697312837635 -3.4183777451876898 Q 1.5647821004986704 -3.428227868510929 1.5477492395945327 -3.4405112576776165 L 1.5339607331483258 -3.4504549536696967 L 1.451486548743424 -3.336091459027629 Q 1.4333539266402187 -3.3109477119786637 1.4288148992942662 -3.2969603165544723 Q 1.4242758719483135 -3.2829729211302805 1.4314898631610888 -3.2716059368872195 Q 1.4387038543738644 -3.2602389526441584 1.4614143355793814 -3.2438611004219084 Q 1.463036512808347 -3.242691253834605 1.4595269730464362 -3.2378247221477086 Q 1.4560174332845255 -3.232958190460812 1.45439525605556 -3.234128037048116 Q 1.4300625976210775 -3.251675735857669 1.4168590144685225 -3.2624305204642323 L 1.3622899119773473 -3.303016393047036 L 1.3089842287423168 -3.3402253185199196 Q 1.2937997103879755 -3.349942849191169 1.2678448747245274 -3.368660394588026 Q 1.266222697495562 -3.36983024117533 1.2697322372574726 -3.3746967728622264 Q 1.2732417770193833 -3.379563304549123 1.2748639542483489 -3.378393457961819 Q 1.2975744354538659 -3.362015605739569 1.3110432039104005 -3.3584670459945096 Q 1.3245119723669352 -3.35491848624945 1.3370488031972998 -3.363754654691191 Q 1.3495856340276644 -3.3725908231329322 1.3671333328372182 -3.3969234815674145 L 1.5461198606946644 -3.645116597599136 Q 1.563667559504218 -3.6694492560336185 1.5682065868501707 -3.6834366514578103 Q 1.5727456141961231 -3.6974240468820017 1.5654185403229324 -3.70948903707913 Q 1.5580914664497414 -3.7215540272762584 1.5361920738587072 -3.7373469562048567 Q 1.5337588080152589 -3.739101726085812 1.5372683477771696 -3.7439682577727087 Q 1.5407778875390803 -3.7488347894596052 1.5432111533825286 -3.74708001957865 L 1.5823695721985316 -3.7176076895752295 Q 1.6136432701905379 -3.6925885806001926 1.6331093969381238 -3.6785504215525497 Q 1.648520080613296 -3.6674368789731657 1.6620824217386718 -3.6588891948892197 Q 1.6756447628640476 -3.650341510805274 1.6859627495314924 -3.6441335198959353 Q 1.7144834436903786 -3.627264317048875 1.7380050135103784 -3.610301541532973 Q 1.8012699254400328 -3.564677524628134 1.819901476292531 -3.5204184542263417 Q 1.838533027145029 -3.47615938382455 1.8110416323433953 -3.4380382189438605 Q 1.7882296238909756 -3.406405762979033 1.748649939838398 -3.3942629210423974 Q 1.7090702557858202 -3.382120079105761 1.6610989675818917 -3.390823843122302 Q 1.6516697330416479 -3.285428921347175 1.653471101030234 -3.2212513935561353 Q 1.6552724690188203 -3.1570738657650956 1.6686514538687547 -3.120917915156859 Q 1.6820304387186895 -3.084761964548623 1.7096074516111028 -3.064874572564462 Q 1.712040717454551 -3.0631198026835067 1.7085311776926404 -3.0582532709966106 M 1.5645404024752958 -3.451827478297226 Q 1.6107724535008126 -3.4184868505590744 1.6441168703012052 -3.427112386382528 Q 1.6774612871015981 -3.4357379222059814 1.7084622216651426 -3.4787256187735673 Q 1.7692942442049284 -3.5630788346797733 1.7076515095042395 -3.607533004997309 Q 1.6906186486001018 -3.6198163941639967 1.6795831459870152 -3.6216101840281008 Q 1.6685476433739288 -3.623403973892205 1.6574068244516988 -3.614793970771295 Q 1.6462660055294687 -3.606183967650385 1.6293032300135668 -3.582662397830385 L 1.5456591990213615 -3.466676725959352 Q 1.5507518960290891 -3.4617711742893067 1.5645404024752958 -3.451827478297226 M 1.9656292664191908 -3.152510910265025 Q 1.8842732192501022 -3.0769980399115475 1.869233863701999 -2.9961845646447474 Q 1.8541945081538957 -2.915371089377947 1.9147408636625396 -2.8501396641702996 Q 1.9317482668953048 -2.8318162301232075 1.9545665277905664 -2.8175219316194062 Q 1.9773847886858278 -2.803227633115605 2.0012518343384116 -2.7980930316882797 L 2.001932130467722 -2.797360094326396 Q 2.0039730188556537 -2.795161282240745 2.0031084784123374 -2.7909479023834485 Q 2.002243937969021 -2.786734522526152 1.9986845336247487 -2.7861595088619877 Q 1.9100193123075204 -2.7993685409524516 1.8528744374454296 -2.860935279350681 Q 1.7998113393592023 -2.918104393577608 1.7872886019348777 -2.9808394001321736 Q 1.774765864510553 -3.0435744066867394 1.7952961904315747 -3.100832643802255 Q 1.8158265163525966 -3.158090880917771 1.8620015701512684 -3.200949537064339 Q 1.9125742481212422 -3.2478899699867707 1.9778482148261145 -3.262087127118085 Q 2.0431221815309866 -3.2762842842494 2.107132758654105 -3.256563837592052 Q 2.171143335777223 -3.2368433909347036 2.2174034725703446 -3.1870036503266137 Q 2.267745386139329 -3.132766285547221 2.2656923780689793 -3.077650179390644 Q 2.2636393699986295 -3.022534073234067 2.2174643161999574 -2.979675417087499 Q 2.2079361304954697 -2.970831567406461 2.202570703362775 -2.9692624301646173 Q 2.19720527623008 -2.9676932929227733 2.1924432033249057 -2.972823854455959 L 1.99850616523881 -3.1802977691016134 Q 1.9780892015712133 -3.1640759444633053 1.9656292664191908 -3.152510910265025 M 2.1059483309212106 -3.2247660840401804 Q 2.0637861917848914 -3.2231523853540422 2.0152058008644156 -3.1917048796021747 L 2.143939693001839 -3.057419418679742 Q 2.229065709445492 -3.139160236662161 2.1766829074885754 -3.195596413527204 Q 2.14811047005753 -3.2263797827263185 2.1059483309212106 -3.2247660840401804 M 2.516775843160057 -2.7311395861030987 L 2.5234481541863563 -2.7318325980570553 Q 2.5251350355328412 -2.7329070427149507 2.5208372569012614 -2.739654568100893 Q 2.4746361366117755 -2.8121904659997705 2.421588071661191 -2.842425425979876 Q 2.3685400067106066 -2.8726603859599815 2.2933019144498212 -2.8697916801616183 Q 2.291921251447631 -2.8700978985059136 2.2903095844607884 -2.872628220525642 Q 2.2886979174739457 -2.8751585425453703 2.2883514114969676 -2.8784946980585198 Q 2.288004905519989 -2.8818308535716692 2.2902290091954223 -2.8820618575563217 L 2.448355291418651 -2.9353542479161074 Q 2.4500421727651363 -2.936428692574003 2.4521910620809266 -2.9330549298810316 Q 2.453802729067769 -2.930524607861303 2.4538806238802735 -2.927610172684775 Q 2.453958518692778 -2.9246957375082467 2.452577855690588 -2.925001955852542 Q 2.4371649195875658 -2.91755605760692 2.4381668303386794 -2.9057452077286596 Q 2.439168741089793 -2.8939343578503993 2.460120411918746 -2.8610401715939315 L 2.594425994155624 -2.6501800032832397 Q 2.5965748834714137 -2.6468062405902684 2.5941224562641905 -2.642280138426898 Q 2.5916700290569668 -2.637754036263527 2.5872218217061005 -2.6372920282942225 L 2.091311194632728 -2.615459713810999 Q 2.085176105935376 -2.6139232611837997 2.084179556089986 -2.612695707353757 Q 2.0831830062445955 -2.611468153523714 2.0864063402182804 -2.606407509484258 L 2.134219127494609 -2.5313412895656513 Q 2.189015805047255 -2.4453103408948893 2.3344206237179224 -2.473901225934536 Q 2.3374881680665984 -2.4746694522481363 2.3400211705391882 -2.469761917380827 Q 2.342554173011778 -2.464854382513518 2.34002385099205 -2.4632427155266754 L 2.210741063095531 -2.3963102065814423 Q 2.2082107410758027 -2.3946985395946 2.2039156428970843 -2.3949268631263907 Q 2.199620544718366 -2.3951551866581813 2.197471655402576 -2.398528949351152 L 2.00951905463059 -2.697337951663744 Q 2.0073701653148 -2.700711714356715 2.0100912036864975 -2.7048160961834644 Q 2.0128122420581946 -2.7089204780102136 2.017260449409061 -2.709382485979518 L 2.516775843160057 -2.7311395861030987 M 2.438553691178887 -1.829363794788092 Q 2.432934253868428 -1.8272609575823584 2.4322333081331835 -1.8291341033525117 Q 2.423471486442626 -1.852548425479425 2.41950143918099 -1.866010918738119 L 2.402213422949707 -1.9150631816297217 L 2.3802484780072923 -1.970907081866692 Q 2.3740548121078815 -1.9846052022752179 2.365292990417324 -2.0080195244021315 Q 2.3645920446820794 -2.0098926701722846 2.3702114819925386 -2.0119955073780185 Q 2.375830919302998 -2.0140983445837524 2.3765318650382423 -2.012225198813599 Q 2.3845927409935554 -1.9906840224568385 2.39406737984786 -1.9824845579267303 Q 2.4035420187021646 -1.974285093396622 2.4185242170062633 -1.9756206584368394 Q 2.4335064153103625 -1.9769562234770566 2.461603601862659 -1.9874704095057256 L 2.647981605992891 -2.0572145101625634 Q 2.7360194571900864 -2.09015895971906 2.75962979075069 -2.1283565008592564 Q 2.7832401243112943 -2.1665540419994533 2.7664174266654236 -2.211509540483127 Q 2.7523985119605316 -2.248972455886189 2.7215757403260317 -2.2742747630688838 Q 2.6907529686915312 -2.2995770702515785 2.6380930028344176 -2.3119029777608713 L 2.376789167898062 -2.214121047694249 Q 2.3486919813457656 -2.20360686166558 2.336338329548834 -2.195246999987289 Q 2.323984677751902 -2.1868871383089976 2.322045205551477 -2.17495028580996 Q 2.3201057333510517 -2.1630134333109226 2.3278161364387424 -2.1424088298392387 Q 2.328517082173987 -2.1405356840690857 2.3228976448635277 -2.1384328468633518 Q 2.3172782075530685 -2.136330009657618 2.316577261817824 -2.138203155427771 Q 2.3064135486567774 -2.165363769094991 2.3013920827922747 -2.181635981008914 L 2.2820012293552576 -2.236307681210976 L 2.2617886487509544 -2.2874687170225636 Q 2.255244509983921 -2.302103410316166 2.2450807968228745 -2.329264023983386 Q 2.24437985108763 -2.3311371697535392 2.2499992883980893 -2.3332400069592727 Q 2.2556187257085485 -2.3353428441650066 2.256319671443793 -2.3334696983948535 Q 2.264380547399106 -2.311928522038093 2.2730938498021453 -2.3029102981978244 Q 2.281807152205184 -2.2938920743575557 2.2967893505092833 -2.2952276393977726 Q 2.3117715488133825 -2.29656320443799 2.3398687353656786 -2.307077390466659 L 2.6264600381991015 -2.414322087959083 Q 2.6545572247513975 -2.424836273987752 2.66626735367198 -2.4334891856747705 Q 2.677977482592562 -2.442142097361789 2.679448668350449 -2.453903713427015 Q 2.680919854108336 -2.4656653294922415 2.6732094510206457 -2.4862699329639257 Q 2.6721580324177787 -2.4890796516191553 2.677777469728238 -2.4911824888248892 Q 2.683396907038697 -2.4932853260306227 2.684448325641564 -2.490475607375393 L 2.706292489151937 -2.4292478969777958 L 2.7307107441677076 -2.3668479865452894 Q 2.7349164185791754 -2.355609111924371 2.7328650685180853 -2.351104451789925 Q 2.7308137184569956 -2.346599791655479 2.719574843836077 -2.3423941172440115 L 2.668063335156867 -2.323118109524785 Q 2.7225905110698827 -2.3029491460672573 2.7576793478318713 -2.269099869343958 Q 2.79276818459386 -2.235250592620658 2.8113432465778416 -2.1856122297116016 Q 2.835876347311403 -2.120052127756243 2.815003470261505 -2.0631260967716414 Q 2.794130593211608 -2.0062000657870396 2.7042195962442594 -1.9725546704952985 L 2.4944272699871135 -1.8940487481479031 Q 2.4663300834348174 -1.883534562119234 2.4538011952040746 -1.8756429868834812 Q 2.4412723069733313 -1.867751411647728 2.439393225488927 -1.8585064642290043 Q 2.4375141440045227 -1.8492615168102804 2.443472182754102 -1.833339777763979 Q 2.4441731284893464 -1.831466631993826 2.438553691178887 -1.829363794788092 M 2.502897448512157 -1.6001347245132151 Q 2.4895167361274946 -1.592637622667906 2.486906441542232 -1.578956015957503 Q 2.4842961469569693 -1.5652744092470998 2.4894495073402907 -1.5367359636559397 Q 2.489804911504658 -1.5347677949944802 2.48390040552028 -1.5337015825013791 Q 2.4779958995359017 -1.5326353700082782 2.477640495371535 -1.5346035386697374 Q 2.4721317308238464 -1.565110152922357 2.4700948797574562 -1.5820172886269448 L 2.4589952224997074 -1.6491127251987452 L 2.44646050282705 -1.7129005046139898 Q 2.442277781017017 -1.7304363204849402 2.436591314387145 -1.7619270190682894 Q 2.436235910222778 -1.7638951877297488 2.442140416207156 -1.7649614002228498 Q 2.448044922191534 -1.7660276127159509 2.448400326355901 -1.7640594440544914 Q 2.4535536867392227 -1.7355209984633313 2.4608730865023483 -1.7231243704093984 Q 2.468192486265474 -1.7107277423554654 2.4833502194719714 -1.708384000893478 Q 2.498507952678469 -1.7060402594314905 2.528030482600359 -1.7113713218969957 L 2.8291602878036355 -1.7657481590451485 Q 2.8586828177255255 -1.7710792215106537 2.871571487944823 -1.778487472314871 Q 2.884460158164121 -1.7858957231190884 2.8874736438736566 -1.800158223035948 Q 2.8904871295831924 -1.8144207229528078 2.885333769199871 -1.8429591685439681 Q 2.884978365035504 -1.8449273372054273 2.890882871019882 -1.8459935496985285 Q 2.89678737700426 -1.8470597621916294 2.897142781168627 -1.8450915935301702 L 2.9050438009470727 -1.7957096749115036 Q 2.9101837155729533 -1.75599089751795 2.914626267627541 -1.7313887892497084 Q 2.919424223846496 -1.7048185123200075 2.9288558799596625 -1.6638423745937287 L 2.9381919621530166 -1.6177681131316182 Q 2.938547366317384 -1.615799944470159 2.9326428603330057 -1.6147337319770578 Q 2.9267383543486276 -1.6136675194839567 2.926382950184261 -1.6156356881454161 Q 2.9214072918831224 -1.6431900494058467 2.9131038077892675 -1.655408975377596 Q 2.904800323695412 -1.6676279013493454 2.8896425904889145 -1.669971642811333 Q 2.874484857282417 -1.6723153842733205 2.844962327360527 -1.6669843218078153 L 2.5458006908187096 -1.6129628888240295 Q 2.5162781608968197 -1.6076318263585243 2.502897448512157 -1.6001347245132151 M 2.970106964751519 -1.1162515864410163 Q 2.9626225244710107 -1.0726599226314357 2.949954929203635 -1.0445079772254435 Q 2.9470380128657636 -1.0374729506385814 2.9435619362772325 -1.0354316541019002 Q 2.9400858596887014 -1.033390357565219 2.933086350277468 -1.0333074841554188 L 2.830152764233459 -1.0270884115460488 Q 2.8271529744857875 -1.02705289437042 2.8260938492771825 -1.0320407048913296 Q 2.8250347240685776 -1.0370285154122394 2.829010765615054 -1.039075731478192 Q 2.8935563259233077 -1.0778426070873195 2.924586475461415 -1.117712769109096 Q 2.9556166249995224 -1.1575829311308723 2.9550128330138348 -1.2085793568412888 Q 2.9541722598572897 -1.2795743808695155 2.8972263353848455 -1.316902810865682 Q 2.840280410912402 -1.3542312408618484 2.746286998818693 -1.353118369358817 Q 2.684291344033481 -1.3523843477291577 2.629502382184003 -1.3342344259812149 Q 2.574713420334525 -1.3160845042332718 2.5401657575029866 -1.2776728003804312 Q 2.505618094671448 -1.2392610965275903 2.5063047600669357 -1.1812651614059404 Q 2.5069085520526233 -1.1302687356955239 2.5383266660235018 -1.0951382344962401 Q 2.5697447799943802 -1.0600077332969562 2.6391424721812844 -1.026827011196138 Q 2.643154030903389 -1.025874437514419 2.642213296280213 -1.0208629488764236 Q 2.641272561657037 -1.015851460238428 2.6382727719093655 -1.0158159430627993 L 2.5321854883566277 -1.0225604421843775 Q 2.5241742099709605 -1.0234656596319247 2.521150742106203 -1.0254300022880771 Q 2.518127274241446 -1.0273943449442295 2.5140210030509977 -1.0363463579530725 Q 2.4861112878141514 -1.1130213068959844 2.4851286459550916 -1.1960154899148974 Q 2.4839920963349744 -1.2920087618403873 2.5212672505676976 -1.3534543709343385 Q 2.5585424048004213 -1.4148999800282898 2.6152128358962514 -1.4430728790522238 Q 2.6718832669920816 -1.4712457780761576 2.7298792021137315 -1.4719324434716452 Q 2.7978744363942867 -1.4727374994525617 2.8543026373209712 -1.4369030448009594 Q 2.9107308382476553 -1.4010685901493574 2.9434803757736256 -1.337951890363682 Q 2.9762299132995955 -1.2748351905780064 2.977153359865941 -1.1968406571385461 Q 2.977591405032028 -1.159843250250597 2.970106964751519 -1.1162515864410163 M 2.463800458998884 -0.48319911847900093 Q 2.463232041187905 -0.48025346045537326 2.4580384022430364 -0.4797279944618573 Q 2.4528447632981676 -0.4792025284683414 2.45262076770493 -0.48331954510350456 L 2.4214227956900616 -0.6013690539638107 Q 2.420216914088948 -0.6056755432026334 2.421164277107246 -0.6105849732420129 Q 2.424764256576778 -0.6292408073916549 2.443979675870495 -0.6443741368788055 Q 2.463195095164211 -0.6595074663659564 2.4994558314764634 -0.6626947853166298 L 2.476458177420382 -0.7282394869172688 Q 2.464468407388403 -0.7611065740194181 2.4620478115192723 -0.7855072034301187 Q 2.459627215650141 -0.8099078328408192 2.464364030741631 -0.8344549830377166 Q 2.4717534622843544 -0.8727485373448763 2.497109883541238 -0.8933167628649225 Q 2.522466304798121 -0.9138849883849686 2.5548685430580256 -0.9076323924642024 Q 2.5853070093021784 -0.9017587417507553 2.6044971421122405 -0.8771774724032994 Q 2.623687274922302 -0.8525962030558434 2.6294413066892846 -0.8138032769168607 L 2.6559201289464713 -0.6396313159935472 L 2.772764563883703 -0.6170840761580568 Q 2.832659610364132 -0.6055262473348224 2.8625208261304023 -0.6124945895308027 Q 2.892382041896672 -0.619462931726783 2.8976872747991402 -0.646955739947308 Q 2.9037503981162467 -0.6783760921993367 2.8786862107537186 -0.7015447458472306 Q 2.85362202339119 -0.7247133994951245 2.8113318790733706 -0.7430585267385647 Q 2.758430461272576 -0.7644697386301361 2.767335673644576 -0.8106183810003031 Q 2.772072488736066 -0.8351655311972004 2.7870934165875783 -0.8470344707656561 Q 2.802114344439091 -0.8589034103341118 2.8246977226202366 -0.8545455404499414 Q 2.8541543028565135 -0.848861362340154 2.87797848946737 -0.8060722500295311 Q 2.901802676078226 -0.7632831377189082 2.9116998186420644 -0.7063771049185885 Q 2.9215969612059025 -0.6494710721182689 2.9130706940412217 -0.6052862017638537 Q 2.9030286460472636 -0.5532462433464314 2.8701531301172296 -0.5280182737029172 Q 2.8372776141871956 -0.5027903040594031 2.7832738837540214 -0.51321129726068 L 2.574132164076456 -0.553568961840171 Q 2.529947293722041 -0.5620952290048522 2.5068300207194945 -0.5584085382223558 Q 2.4837127477169485 -0.5547218474398596 2.475453024123948 -0.5435851079633685 Q 2.467193300530948 -0.5324483684868773 2.4634038484577565 -0.5128106483293593 Q 2.4615091224211607 -0.5029917882506004 2.463197518198327 -0.48535236309841234 L 2.463800458998884 -0.48319911847900093 M 2.5198514420486195 -0.6628328772749417 Q 2.5380938080013644 -0.6623680284326969 2.559695300174634 -0.6581996311521862 L 2.635300522781078 -0.6436102406703983 L 2.6201748144437733 -0.7341155606648317 Q 2.611595551277667 -0.7846565959087471 2.566428794915376 -0.7933723356770879 Q 2.539917872702727 -0.7984880959758967 2.522235495733076 -0.7886604032302336 Q 2.504553118763425 -0.7788327104845705 2.5003847214829142 -0.7572312183113008 Q 2.497353159824361 -0.7415210421852865 2.5057943310321553 -0.7113756175135273 L 2.5198514420486195 -0.6628328772749417" fill="#3f170e" fill-rule="nonzero"></path></g><g transform="matrix(1,0,0,1,0,0)"><g clip-path="url(#SvgjsClipPath1001)"><g clip-path="url(#SvgjsClipPath100088fa5f52-1219-46d6-aef9-4bdaf03930d1)"><path d=" M -0.7853557526236068 -1.8431399333202492 L -0.9319116892793331 -1.6336173266198002 L -1.1023125032148218 -1.4340259543234661 L -1.340158131160948 -1.2017821374638533 L -1.7508749882562324 -0.86847437781628 L -2.0514476807581303 -0.5108755789440009 L -2.2803122339977073 -0.1888375395353732 L -1.2049214882936052 -0.1888375395353732 L -1.2049214882936052 -0.7272641222416372 L 0.8398221808663413 -0.7272641222416372 L -0.10903207989681807 -1.6688062844626654 L -0.2815976054911069 -1.6422018129308444 L -0.22473674428551949 -1.772935525057553 L -0.2705096549334347 -1.8141228823824371 L -0.37724976913206665 -1.9101964211936213 L -0.5045959553804997 -2.024810467494683 Z" fill="#c08c46" transform="matrix(1,0,0,1,0,0)" fill-rule="nonzero"></path></g><g clip-path="url(#SvgjsClipPath100088fa5f52-1219-46d6-aef9-4bdaf03930d1)"><path d=" M -0.581341496568835 -1.8053028271187963 L -0.5189449223426514 -1.9368379782947553 L -0.7386218444196866 -1.7946940875390267 L -0.8570447917692483 -1.6253921539494176 L -0.7140581506730705 -1.6487991315424761 L -0.5988987953281888 -1.6090328826348197 L -0.59751073594392 -1.67396597014059 L -0.7543449218498279 -1.7098241709008701 L -0.5962300859167671 -1.7334211804334418 L -0.5956104165487899 -1.762355608788857 L -0.6661205283663549 -1.7893236196832243 Z" fill="#d56a34" transform="matrix(1,0,0,1,0,0)" fill-rule="nonzero"></path></g><g clip-path="url(#SvgjsClipPath100088fa5f52-1219-46d6-aef9-4bdaf03930d1)"><path d=" M -1.718487203220691 -1.4302593979293863 L -1.8509229405447771 -1.6642300267610954 L -1.983358677868863 -1.4302593979293863 L -1.8509229405447771 -1.4798081605928426 Z" fill="#c08c46" transform="matrix(1,0,0,1,0,0)" fill-rule="nonzero"></path></g><g clip-path="url(#SvgjsClipPath100088fa5f52-1219-46d6-aef9-4bdaf03930d1)"><path d=" M -1.650658024628961 -1.2265673707515345 L -1.8509186398427109 -1.4990731720131856 L -2.0511875173147 -1.2265673707515345 L -1.8509186398427109 -1.2737861765913967 Z" fill="#c08c46" transform="matrix(1,0,0,1,0,0)" fill-rule="nonzero"></path></g><g clip-path="url(#SvgjsClipPath100088fa5f52-1219-46d6-aef9-4bdaf03930d1)"><path d=" M -1.6833828457638895 -1.1164642421915254 L -1.8509166560902037 -1.3339186168020825 L -2.018450466416518 -1.1164642421915254 L -1.8509166560902037 -1.1564866211046125 Z" fill="#c08c46" transform="matrix(1,0,0,1,0,0)" fill-rule="nonzero"></path></g><g clip-path="url(#SvgjsClipPath100088fa5f52-1219-46d6-aef9-4bdaf03930d1)"><path d=" M -1.5381195893645345 -0.6471440796662318 L -1.8509204240611825 -1.0366351953437372 L -2.1637212587578305 -0.6471440796662318 L -1.8509204240611825 -0.7549087138865855 Z" fill="#c08c46" transform="matrix(1,0,0,1,0,0)" fill-rule="nonzero"></path></g><g clip-path="url(#SvgjsClipPath100088fa5f52-1219-46d6-aef9-4bdaf03930d1)"><path d=" M -2.2745179171834122 -0.3776430010865739 L -1.8509201994924422 -0.491430821563666 L -1.4273307440597116 -0.3776430010865739 L -1.8509201994924422 -0.8549701841102866 Z" fill="#c08c46" transform="matrix(1,0,0,1,0,0)" fill-rule="nonzero"></path></g><g clip-path="url(#SvgjsClipPath100088fa5f52-1219-46d6-aef9-4bdaf03930d1)"><path d=" M -1.5885855888575962 -0.8701078723675877 L -1.8509205502261814 -1.2183042213630928 L -2.1132637738530065 -0.8701078723675877 L -1.8509205502261814 -0.9518133440999406 Z" fill="#c08c46" transform="matrix(1,0,0,1,0,0)" fill-rule="nonzero"></path></g><g clip-path="url(#SvgjsClipPath100088fa5f52-1219-46d6-aef9-4bdaf03930d1)"><path d=" M -1.2993541882757391 -1.7480700212104079 L -1.402095369486358 -1.9587493440644141 L -1.5048282884387372 -1.7480700212104079 L -1.402095369486358 -1.7926862157047658 Z" fill="#c08c46" transform="matrix(1,0,0,1,0,0)" fill-rule="nonzero"></path></g><g clip-path="url(#SvgjsClipPath100088fa5f52-1219-46d6-aef9-4bdaf03930d1)"><path d=" M -1.2846679875391778 -1.6008300145853303 L -1.4020912016417362 -1.8121042200325947 L -1.5195144157442946 -1.6173462688064824 L -1.4020912016417362 -1.6704643270294874 Z" fill="#c08c46" transform="matrix(1,0,0,1,0,0)" fill-rule="nonzero"></path></g><g clip-path="url(#SvgjsClipPath100088fa5f52-1219-46d6-aef9-4bdaf03930d1)"><path d=" M -1.226375544362455 -1.4155360169377955 L -1.402097252604308 -1.7057974111565528 L -1.577818960846161 -1.4155360169377955 L -1.402097252604308 -1.4702817400340207 Z" fill="#c08c46" transform="matrix(1,0,0,1,0,0)" fill-rule="nonzero"></path></g><g clip-path="url(#SvgjsClipPath100088fa5f52-1219-46d6-aef9-4bdaf03930d1)"><path d=" M -1.1174250037083533 -0.9853852530858369 L -1.4020928490988367 -1.3548734415650383 L -1.68675243223108 -0.9853852530858369 L -1.4020928490988365 -1.0984873061290343 Z" fill="#c08c46" transform="matrix(1,0,0,1,0,0)" fill-rule="nonzero"></path></g><g clip-path="url(#SvgjsClipPath100088fa5f52-1219-46d6-aef9-4bdaf03930d1)"><path d=" M -1.1780412128244053 -1.1946171382630493 L -1.4020888695102398 -1.5250248452684891 L -1.6261282639378343 -1.1946171382630493 L -1.4020888695102398 -1.2643919090972813 Z" fill="#c08c46" transform="matrix(1,0,0,1,0,0)" fill-rule="nonzero"></path></g><g clip-path="url(#ae9b209e5-10a2-4074-8262-99bbed951b0f88fa5f52-1219-46d6-aef9-4bdaf03930d1)"><path d=" M -1.4374210414197481 -1.2059194552991181 L -1.6867594705772917 -0.9853832583651545 L -1.8509305418000497 -1.1004517288693998 C -1.8509305418000497 -1.1004517288693998 -1.8235989915431354 -0.7371354472952509 -1.8013239433289152 -0.7368710550315807 C -1.7790488951146952 -0.7366066627679104 -1.3620361972407626 -0.9388006464097489 -1.3620361972407626 -0.9388006464097489 Z" fill="#c08c46" transform="matrix(1,0,0,1,0,0)" fill-rule="nonzero"></path></g><g clip-path="url(#SvgjsClipPath100088fa5f52-1219-46d6-aef9-4bdaf03930d1)"><path d=" M 1.669433405428864 -1.333373850032282 L 1.5663038980809794 -1.5448546119355386 L 1.4631826529913345 -1.333373850032282 L 1.5663038980809794 -1.378155289691434 Z" fill="#c08c46" transform="matrix(1,0,0,1,0,0)" fill-rule="nonzero"></path></g><g clip-path="url(#SvgjsClipPath100088fa5f52-1219-46d6-aef9-4bdaf03930d1)"><path d=" M 1.68417537654797 -1.1855761395817652 L 1.5663060005004676 -1.3976435218200405 L 1.4484448867112052 -1.2021502296105953 L 1.5663060005004676 -1.2554748442895929 Z" fill="#c08c46" transform="matrix(1,0,0,1,0,0)" fill-rule="nonzero"></path></g><g clip-path="url(#SvgjsClipPath100088fa5f52-1219-46d6-aef9-4bdaf03930d1)"><path d=" M 1.7426970979640397 -0.9995819137978461 L 1.5663144090630112 -1.2909421883624828 L 1.3899234579037425 -0.9995819137978461 L 1.5663144090630112 -1.0545341933500636 Z" fill="#c08c46" transform="matrix(1,0,0,1,0,0)" fill-rule="nonzero"></path></g><g clip-path="url(#SvgjsClipPath100088fa5f52-1219-46d6-aef9-4bdaf03930d1)"><path d=" M 1.852050424714291 -0.5678014154337714 L 1.5663084857526477 -0.9386859255554816 L 1.2805748090492437 -0.5678014154337714 L 1.5663084857526477 -0.6813331059054328 Z" fill="#c08c46" transform="matrix(1,0,0,1,0,0)" fill-rule="nonzero"></path></g><g clip-path="url(#SvgjsClipPath100088fa5f52-1219-46d6-aef9-4bdaf03930d1)"><path d=" M 1.7911987406497212 -0.7778264793849414 L 1.566308333623438 -1.1094817873845753 L 1.3414179265971544 -0.7778264793849414 L 1.566308333623438 -0.8478656424828437 Z" fill="#c08c46" transform="matrix(1,0,0,1,0,0)" fill-rule="nonzero"></path></g><g clip-path="url(#SvgjsClipPath100088fa5f52-1219-46d6-aef9-4bdaf03930d1)"><path d=" M 0.21832523189151587 -2.221659716354896 L 0.0036139270165382875 -2.0565136986598542 L -0.1294662664502444 -1.9020342563522594 L -0.3927266007416754 -1.6419796782578304 L -2.0418320340937828 -0.18750000000000044 L -1.2049065857037844 -0.18750000000000044 L -1.2049065857037844 -0.7272650685410949 L 0.8398288211979223 -0.7272650685410949 L 0.8398370834561621 -0.27065136692430003 L 1.3290619183450367 -0.27067615369901876 L 1.3982913801354497 -0.18778917903838943 L 1.5649576533465952 -0.25301144558254896 L 1.6715077356057138 -0.25456475013161173 L 1.8405039656404543 -0.1875 L 2.280312233997708 -0.1875 L 1.858705720542504 -0.7665851555038077 L 1.4337860415331831 -1.1079238301603653 L 1.280223709890194 -1.3287078948415196 L 1.002487899162816 -1.4531457661895801 L 0.5639272317997568 -2.00309819914022 Z" fill="#c08c46" transform="matrix(1,0,0,1,0,0)" fill-rule="nonzero"></path></g><g clip-path="url(#SvgjsClipPath100088fa5f52-1219-46d6-aef9-4bdaf03930d1)"><path d=" M 0.269615393704393 -2.040901709820932 L 0.22577585148456603 -2.142494437136233 L 0.05300376943428464 -2.009604275608964 L -0.07739945236283585 -1.8582397046577348 L -0.24176055552510656 -1.69588633024771 L 0.07078414916611075 -1.789249848356274 L 0.24089578406321 -1.7289188386900145 L 0.26770681205102287 -1.812532892075737 L -0.002708637875984632 -1.8542242471532426 L 0.2909898557704862 -1.8851664042609038 L 0.2976822849446399 -1.906028606316136 L 0.06760317974382746 -1.9414984809391507 L 0.30185472535568625 -1.9661861085593622 L 0.28915563444127335 -1.9956162724091588 L 0.14614420657037686 -2.0237823107482824 Z" fill="#d56a34" transform="matrix(1,0,0,1,0,0)" fill-rule="nonzero"></path></g><g clip-path="url(#SvgjsClipPath100088fa5f52-1219-46d6-aef9-4bdaf03930d1)"><path d=" M 0.5481017005827904 -1.271877708213871 L 0.6402176176971603 -1.3063478495898824 L 0.48263156629144 -1.0919009369785748 L 0.6292453387548442 -1.126478487711702 L 0.4864074183069813 -0.966165891086882 L 0.611754138061408 -0.9961165772057798 L 0.515804533123819 -0.889764789144414 L 0.8398337767682138 -0.5383131104024688 L 0.8398337767682138 -0.18750588780321964 L 1.840500658952506 -0.18750588780321964 L 1.6714961666595256 -0.434043411417506 L 1.844284773226287 -0.3674909212967554 L 1.653096117559723 -0.6494487459846183 L 1.7959588247823048 -0.6049316985891366 L 1.6688191949898648 -0.7910473276965269 L 1.754176584864163 -0.7571968556884927 L 1.635133968146624 -0.9449814609603016 L 1.7229700354928315 -0.9209548139992658 L 1.6202371165404523 -1.0490611280057511 L 1.5174959353298338 -0.9209548139992658 L 1.603786960385218 -0.9445600857900773 L 1.4862893859585018 -0.773713109909645 L 1.5766867533590148 -0.7984172620463357 L 1.4445154082985998 -0.6049316985891366 L 1.5873781155211812 -0.6494487459846183 L 1.3961894598546176 -0.3674909212967554 L 1.564946084400407 -0.43249010686844325 L 1.3982880734475005 -0.18778680458336883 L 1.1876665864011722 -0.4399591883171281 L 1.363900554653886 -0.3699365497357052 L 1.1232622834227426 -0.6557363245050267 L 1.2567886388344682 -0.6141441165263977 L 1.0972196454512209 -0.8259553687592422 L 1.238322491668748 -0.7683426420538426 L 1.0576351662248378 -1.0028833667040908 L 1.17332330609706 -0.9412469202359592 L 1.088040276546919 -1.1073844089197646 L 1.1673744801644794 -1.0672546206495617 L 1.0392764284162337 -1.2830234945792207 L 0.9111866389262278 -1.0672546206495617 L 0.9905291048020279 -1.1073926711780047 L 0.905246075251886 -0.9412469202359595 L 1.0209342151241088 -1.0028833667040908 L 0.8887793945801725 -0.8313340988732845 L 0.7401331065898034 -0.9961165772057798 L 0.86547982634423 -0.966165891086882 L 0.7226419058963667 -1.126478487711702 L 0.8692639406180107 -1.0919009369785748 L 0.7116778892122904 -1.3063478495898824 L 0.8037938063266599 -1.271877708213871 L 0.6759518845838453 -1.497726537195959 Z" fill="#3f170e" transform="matrix(1,0,0,1,0,0)" fill-rule="nonzero"></path></g><g clip-path="url(#SvgjsClipPath100088fa5f52-1219-46d6-aef9-4bdaf03930d1)"><path d=" M 0.12645901842336293 -1.1186702706565954 L -0.7150602455479063 -1.0629743878628053 L 0.014050995072299788 -1.0174989185115189 Z M -0.03692713826662386 -0.9716268607647269 L -0.8746127144146743 -0.9161705834598881 L -0.1488229016068261 -0.8709181950810734 Z M -0.1998753952699066 -0.8249800392683642 L -1.0397587321097161 -0.7693833035734503 L -0.24511952139048176 -0.7198345409099938 L -0.1835243862135485 -0.7693915658316899 L -0.26164403786987345 -0.7693915658316899 Z" fill="#c08c46" transform="matrix(1,0,0,1,0,0)" fill-rule="nonzero"></path></g><g clip-path="url(#SvgjsClipPath100088fa5f52-1219-46d6-aef9-4bdaf03930d1)"><path d=" M -1.204922537210567 -0.7693803647841257 L -1.204922537210567 -0.18884105183013178 L -0.2616370385009632 -0.18884105183013178 L -0.2616370385009632 -0.7208643844006313 L -1.0397599949990457 -0.7693803647841257 Z" fill="#3f170e" transform="matrix(1,0,0,1,0,0)" fill-rule="nonzero"></path></g><g clip-path="url(#SvgjsClipPath100088fa5f52-1219-46d6-aef9-4bdaf03930d1)"><path d=" M -0.2616408769904921 -0.7693803647841257 L -0.2616408769904921 -0.18884105183013178 L -0.051647321570380544 -0.18884105183013178 L -0.051647321570380544 -0.532765813315714 L 0.1917670684293009 -0.5230989711752698 L 0.1917670684293009 -0.18884105183013178 L 0.6512064623640721 -0.18884105183013178 L 0.6512064623640721 -0.7693803647841257 L 0.19478279268679 -1.1801633199453276 Z" fill="#c08c46" transform="matrix(1,0,0,1,0,0)" fill-rule="nonzero"></path></g><g clip-path="url(#SvgjsClipPath100088fa5f52-1219-46d6-aef9-4bdaf03930d1)"><path d=" M -0.051646796585179455 -0.599472796009537 L -0.051646796585179455 -0.5907478513084181 L 0.1917841179309816 -0.5775778116743429 L 0.1917841179309816 -0.599472796009537 L 0.5158133615753764 -0.8910974628378443 L 0.2723824470592153 -0.8910974628378443 Z" fill="#c08c46" transform="matrix(1,0,0,1,0,0)" fill-rule="nonzero"></path></g><g clip-path="url(#SvgjsClipPath100088fa5f52-1219-46d6-aef9-4bdaf03930d1)"><path d=" M 0.19177852980061738 -0.599472796009537 L 0.19177852980061738 -0.18883856149664968 L 0.8398370170894065 -0.18883856149664968 L 0.8398370170894065 -0.599472796009537 L 0.5157995111867724 -0.8910974628378443 Z" fill="#c08c46" transform="matrix(1,0,0,1,0,0)" fill-rule="nonzero"></path></g><g clip-path="url(#SvgjsClipPath100088fa5f52-1219-46d6-aef9-4bdaf03930d1)"><path d=" M 0.1264528217141918 -1.1186702706565954 L 0.16631821772072453 -1.1545532581915947 L -0.18527391941129556 -1.1801662587346522 L -0.7484955390948873 -1.1801662587346522 L -1.2049109465139296 -0.7693750413152107 L -1.0396657817200112 -0.7693750413152107 L -1.0397649288188875 -0.7693833035734503 L -0.19984854294611942 -0.8249800392683642 L -0.14880431154127827 -0.8709181950810734 L -0.874610648865606 -0.9161705834598881 L -0.03691681045931583 -0.9716268607647269 L 0.014044798363128663 -1.0174989185115189 L -0.715058179998838 -1.0629743878628053 Z" fill="#3f170e" transform="matrix(1,0,0,1,0,0)" fill-rule="nonzero"></path></g><g clip-path="url(#SvgjsClipPath100088fa5f52-1219-46d6-aef9-4bdaf03930d1)"><path d=" M 0.5157796655440126 -0.8910775362040955 L 0.2723652755443311 -0.8910775362040955 L 0.20730825416496534 -0.8325394365758498 L 0.4897866011219292 -0.8676870831275165 Z M 0.4053380596539973 -0.7916825695805536 L 0.172210181162737 -0.8009362988090132 L 0.09181014623225625 -0.7285754411457561 L 0.37444547609577405 -0.7638718083457372 Z M 0.2897573291388911 -0.6876524760845422 L 0.05663771290587061 -0.6969144675712413 L -0.023820157832288302 -0.6244957741003065 L 0.25879038525651055 -0.6597921413002876 Z" fill="#3f170e" transform="matrix(1,0,0,1,0,0)" fill-rule="nonzero"></path></g><g clip-path="url(#SvgjsClipPath100088fa5f52-1219-46d6-aef9-4bdaf03930d1)"><path d=" M -0.051646796585179455 -0.18881687921125812 L 0.19176759341450156 -0.18883340372773771 L 0.19176759341450156 -0.5829348595029933 L -0.051646796585179455 -0.5925934393851979 Z" fill="#3f170e" transform="matrix(1,0,0,1,0,0)" fill-rule="nonzero"></path></g><g clip-path="url(#SvgjsClipPath100088fa5f52-1219-46d6-aef9-4bdaf03930d1)"><path d=" M -0.5340009387166769 -0.3585174634611852 L -0.39720272904203147 -0.3585174634611852 L -0.39720272904203147 -0.599477962763677 L -0.5340009387166769 -0.599477962763677 Z M -0.7156632106328711 -0.3585174634611852 L -0.5788732632164653 -0.3585174634611852 L -0.5788732632164653 -0.599477962763677 L -0.7156632106328711 -0.599477962763677 Z M -1.0603976734259437 -0.18884372825078977 L -0.8575344468666899 -0.18884372825078977 L -0.8575344468666899 -0.599477962763677 L -1.0603976734259437 -0.599477962763677 Z" fill="#c08c46" transform="matrix(1,0,0,1,0,0)" fill-rule="nonzero"></path></g><g clip-path="url(#SvgjsClipPath100088fa5f52-1219-46d6-aef9-4bdaf03930d1)"><path d=" M 0.5841965669272895 -0.3915582341617294 L 0.4474066195108839 -0.3915582341617294 L 0.4474066195108839 -0.599477962763677 L 0.5841965669272895 -0.599477962763677 Z" fill="#3f170e" transform="matrix(1,0,0,1,0,0)" fill-rule="nonzero"></path></g><g clip-path="url(#SvgjsClipPath100088fa5f52-1219-46d6-aef9-4bdaf03930d1)"><path d=" M 0.19477773703964552 -1.3361004020677618 L 0.19477773703964552 -1.3779404777935822 L -0.04863665296003594 -1.3779404777935822 L -0.04863665296003594 -1.308380525673582 Z M -0.04863665296003594 -1.2816851693011244 L -0.04863665296003594 -1.1968978752453652 L 0.19477773703964552 -1.2246260138977845 L 0.19477773703964552 -1.2639461008604975 Z" fill="#3f170e" transform="matrix(1,0,0,1,0,0)" fill-rule="nonzero"></path></g></g></g></g><defs><clipPath id="SvgjsClipPath1001"><path d=" M -2.2803122339977073 -2.221659716354896 h 4.560624467995415 v 2.034159716354896 h -4.560624467995415 Z"></path></clipPath><clipPath id="SvgjsClipPath100088fa5f52-1219-46d6-aef9-4bdaf03930d1"><path d=" M -2.2803122339977073 -2.221659716354896 L 2.2803122339977073 -2.221659716354896 L 2.2803122339977073 -0.1875 L -2.2803122339977073 -0.1875 Z"></path></clipPath><clipPath id="ae9b209e5-10a2-4074-8262-99bbed951b0f88fa5f52-1219-46d6-aef9-4bdaf03930d1"><path d=" M -2.2803118402588067 -0.18749698015771932 L 2.280305987405026 -0.18749698015771932 L 2.280305987405026 -2.2216566965126154 L -2.2803118402588067 -2.2216566965126154 Z"></path></clipPath></defs></svg>